<svg width="320" height="320" viewBox="0 0 320 320" xmlns="http://www.w3.org/2000/svg" shape-rendering="crispEdges"><rect width="100%" height="100%" fill="#e1d7d5" /><rect width="140" height="10" x="90" y="210" fill="#d3200f" /><rect width="140" height="10" x="90" y="220" fill="#d3200f" /><rect width="140" height="10" x="90" y="230" fill="#d3200f" /><rect width="140" height="10" x="90" y="240" fill="#d3200f" /><rect width="20" height="10" x="90" y="250" fill="#d3200f" /><rect width="110" height="10" x="120" y="250" fill="#d3200f" /><rect width="20" height="10" x="90" y="260" fill="#d3200f" /><rect width="110" height="10" x="120" y="260" fill="#d3200f" /><rect width="20" height="10" x="90" y="270" fill="#d3200f" /><rect width="110" height="10" x="120" y="270" fill="#d3200f" /><rect width="20" height="10" x="90" y="280" fill="#d3200f" /><rect width="110" height="10" x="120" y="280" fill="#d3200f" /><rect width="20" height="10" x="90" y="290" fill="#d3200f" /><rect width="110" height="10" x="120" y="290" fill="#d3200f" /><rect width="20" height="10" x="90" y="300" fill="#d3200f" /><rect width="110" height="10" x="120" y="300" fill="#d3200f" /><rect width="20" height="10" x="90" y="310" fill="#d3200f" /><rect width="110" height="10" x="120" y="310" fill="#d3200f" /><rect width="30" height="10" x="190" y="230" fill="#923205" /><rect width="10" height="10" x="180" y="240" fill="#923205" /><rect width="10" height="10" x="200" y="240" fill="#000000" /><rect width="10" height="10" x="130" y="250" fill="#d36633" /><rect width="10" height="10" x="140" y="250" fill="#923205" /><rect width="10" height="10" x="150" y="250" fill="#4b1a03" /><rect width="10" height="10" x="170" y="250" fill="#923205" /><rect width="10" height="10" x="190" y="250" fill="#000000" /><rect width="20" height="10" x="130" y="260" fill="#923205" /><rect width="10" height="10" x="150" y="260" fill="#4b1a03" /><rect width="10" height="10" x="160" y="260" fill="#923205" /><rect width="10" height="10" x="180" y="260" fill="#000000" /><rect width="30" height="10" x="130" y="270" fill="#4b1a03" /><rect width="10" height="10" x="170" y="270" fill="#000000" /><rect width="10" height="10" x="140" y="280" fill="#923205" /><rect width="10" height="10" x="160" y="280" fill="#000000" /><rect width="10" height="10" x="130" y="290" fill="#923205" /><rect width="20" height="10" x="140" y="290" fill="#000000" /><rect width="160" height="10" x="70" y="70" fill="#ffffff" /><rect width="20" height="10" x="50" y="80" fill="#ffffff" /><rect width="40" height="10" x="70" y="80" fill="#49443c" /><rect width="120" height="10" x="110" y="80" fill="#d6cdbb" /><rect width="20" height="10" x="230" y="80" fill="#ffffff" /><rect width="20" height="10" x="30" y="90" fill="#ffffff" /><rect width="40" height="10" x="50" y="90" fill="#d6cdbb" /><rect width="40" height="10" x="90" y="90" fill="#49443c" /><rect width="120" height="10" x="130" y="90" fill="#d6cdbb" /><rect width="10" height="10" x="250" y="90" fill="#ffffff" /><rect width="230" height="10" x="30" y="100" fill="#d6cdbb" /><rect width="10" height="10" x="260" y="100" fill="#ffffff" /><rect width="230" height="10" x="40" y="110" fill="#d6cdbb" /><rect width="10" height="10" x="270" y="110" fill="#ffffff" /><rect width="230" height="10" x="50" y="120" fill="#d6cdbb" /><rect width="10" height="10" x="280" y="120" fill="#ffffff" /><rect width="230" height="10" x="60" y="130" fill="#b7ad99" /><rect width="230" height="10" x="60" y="140" fill="#b7ad99" /><rect width="240" height="10" x="50" y="150" fill="#009c3b" /><rect width="240" height="10" x="40" y="160" fill="#009c3b" /><rect width="240" height="10" x="30" y="170" fill="#009c3b" /><rect width="60" height="10" x="30" y="180" fill="#009c3b" /><rect width="40" height="10" x="90" y="180" fill="#49443c" /><rect width="130" height="10" x="130" y="180" fill="#009c3b" /><rect width="20" height="10" x="50" y="190" fill="#009c3b" /><rect width="40" height="10" x="70" y="190" fill="#49443c" /><rect width="140" height="10" x="110" y="190" fill="#009c3b" /><rect width="160" height="10" x="70" y="200" fill="#009c3b" /><rect width="10" height="10" x="100" y="110" fill="#ee668c" /><rect width="10" height="10" x="110" y="110" fill="#f9c6d4" /><rect width="10" height="10" x="120" y="110" fill="#b71844" /><rect width="20" height="10" x="130" y="110" fill="#e9265c" /><rect width="10" height="10" x="150" y="110" fill="#f9c6d4" /><rect width="10" height="10" x="170" y="110" fill="#f9c6d4" /><rect width="10" height="10" x="180" y="110" fill="#ee668c" /><rect width="10" height="10" x="190" y="110" fill="#e9265c" /><rect width="10" height="10" x="200" y="110" fill="#ee668c" /><rect width="10" height="10" x="210" y="110" fill="#e9265c" /><rect width="10" height="10" x="220" y="110" fill="#f9c6d4" /><rect width="10" height="10" x="100" y="120" fill="#e9265c" /><rect width="20" height="10" x="110" y="120" fill="#ffffff" /><rect width="20" height="10" x="130" y="120" fill="#000000" /><rect width="10" height="10" x="150" y="120" fill="#b71844" /><rect width="10" height="10" x="170" y="120" fill="#e9265c" /><rect width="20" height="10" x="180" y="120" fill="#ffffff" /><rect width="20" height="10" x="200" y="120" fill="#000000" /><rect width="10" height="10" x="220" y="120" fill="#e9265c" /><rect width="10" height="10" x="70" y="130" fill="#e9265c" /><rect width="10" height="10" x="80" y="130" fill="#f9c6d4" /><rect width="20" height="10" x="90" y="130" fill="#b71844" /><rect width="20" height="10" x="110" y="130" fill="#ffffff" /><rect width="20" height="10" x="130" y="130" fill="#000000" /><rect width="10" height="10" x="150" y="130" fill="#ee668c" /><rect width="10" height="10" x="160" y="130" fill="#f9c6d4" /><rect width="10" height="10" x="170" y="130" fill="#b71844" /><rect width="20" height="10" x="180" y="130" fill="#ffffff" /><rect width="20" height="10" x="200" y="130" fill="#000000" /><rect width="10" height="10" x="220" y="130" fill="#b71844" /><rect width="10" height="10" x="70" y="140" fill="#ee668c" /><rect width="10" height="10" x="100" y="140" fill="#ee668c" /><rect width="20" height="10" x="110" y="140" fill="#ffffff" /><rect width="20" height="10" x="130" y="140" fill="#000000" /><rect width="10" height="10" x="150" y="140" fill="#f9c6d4" /><rect width="10" height="10" x="170" y="140" fill="#b71844" /><rect width="20" height="10" x="180" y="140" fill="#ffffff" /><rect width="20" height="10" x="200" y="140" fill="#000000" /><rect width="10" height="10" x="220" y="140" fill="#f9c6d4" /><rect width="10" height="10" x="70" y="150" fill="#b71844" /><rect width="10" height="10" x="100" y="150" fill="#f9c6d4" /><rect width="20" height="10" x="110" y="150" fill="#ffffff" /><rect width="20" height="10" x="130" y="150" fill="#000000" /><rect width="10" height="10" x="150" y="150" fill="#e9265c" /><rect width="10" height="10" x="170" y="150" fill="#ee668c" /><rect width="20" height="10" x="180" y="150" fill="#ffffff" /><rect width="20" height="10" x="200" y="150" fill="#000000" /><rect width="10" height="10" x="220" y="150" fill="#e9265c" /><rect width="10" height="10" x="100" y="160" fill="#ee668c" /><rect width="10" height="10" x="110" y="160" fill="#b71844" /><rect width="10" height="10" x="120" y="160" fill="#e9265c" /><rect width="10" height="10" x="130" y="160" fill="#f9c6d4" /><rect width="10" height="10" x="140" y="160" fill="#e9265c" /><rect width="10" height="10" x="150" y="160" fill="#f9c6d4" /><rect width="10" height="10" x="170" y="160" fill="#e9265c" /><rect width="10" height="10" x="180" y="160" fill="#f9c6d4" /><rect width="10" height="10" x="190" y="160" fill="#b71844" /><rect width="10" height="10" x="200" y="160" fill="#ee668c" /><rect width="10" height="10" x="210" y="160" fill="#f9c6d4" /><rect width="10" height="10" x="220" y="160" fill="#ee668c" /></svg>